<svg xmlns="http://www.w3.org/2000/svg" viewBox="0 0 1280 560" width="1280" height="560" role="img" aria-label="By the numbers: about 1,500 hours building a thrust vectored UAV; over 450 million RL simulation steps; 98 percent of goals reached by the RL hexapod with zero falls; YOLO inference from 35 to 6 ms; over 1,000 GitHub contributions in 2026; over 47 thousand lines of code since May; about 150 pull requests merged; zero lines of hand written gait.">
<title>By the numbers</title>
<defs><radialGradient id="g0" cx="305.0" cy="40" r="274.5" gradientUnits="userSpaceOnUse"><stop offset="0" stop-color="#2f81f7" stop-opacity="0.16"/><stop offset="1" stop-color="#2f81f7" stop-opacity="0"/></radialGradient><radialGradient id="g1" cx="630.0" cy="40" r="274.5" gradientUnits="userSpaceOnUse"><stop offset="0" stop-color="#a371f7" stop-opacity="0.16"/><stop offset="1" stop-color="#a371f7" stop-opacity="0"/></radialGradient><radialGradient id="g2" cx="955.0" cy="40" r="274.5" gradientUnits="userSpaceOnUse"><stop offset="0" stop-color="#3fb950" stop-opacity="0.16"/><stop offset="1" stop-color="#3fb950" stop-opacity="0"/></radialGradient><radialGradient id="g3" cx="1280.0" cy="40" r="274.5" gradientUnits="userSpaceOnUse"><stop offset="0" stop-color="#f0883e" stop-opacity="0.16"/><stop offset="1" stop-color="#f0883e" stop-opacity="0"/></radialGradient><radialGradient id="g4" cx="305.0" cy="310" r="274.5" gradientUnits="userSpaceOnUse"><stop offset="0" stop-color="#3fb950" stop-opacity="0.16"/><stop offset="1" stop-color="#3fb950" stop-opacity="0"/></radialGradient><radialGradient id="g5" cx="630.0" cy="310" r="274.5" gradientUnits="userSpaceOnUse"><stop offset="0" stop-color="#f05138" stop-opacity="0.16"/><stop offset="1" stop-color="#f05138" stop-opacity="0"/></radialGradient><radialGradient id="g6" cx="955.0" cy="310" r="274.5" gradientUnits="userSpaceOnUse"><stop offset="0" stop-color="#a371f7" stop-opacity="0.16"/><stop offset="1" stop-color="#a371f7" stop-opacity="0"/></radialGradient><radialGradient id="g7" cx="1280.0" cy="310" r="274.5" gradientUnits="userSpaceOnUse"><stop offset="0" stop-color="#db61a2" stop-opacity="0.16"/><stop offset="1" stop-color="#db61a2" stop-opacity="0"/></radialGradient><linearGradient id="areaf05138" x1="0" y1="0" x2="0" y2="1"><stop offset="0" stop-color="#f05138" stop-opacity=".35"/><stop offset="1" stop-color="#f05138" stop-opacity="0"/></linearGradient><linearGradient id="areadb61a2" x1="0" y1="0" x2="0" y2="1"><stop offset="0" stop-color="#db61a2" stop-opacity=".35"/><stop offset="1" stop-color="#db61a2" stop-opacity="0"/></linearGradient><linearGradient id="areaf0883e" x1="0" y1="0" x2="0" y2="1"><stop offset="0" stop-color="#f0883e" stop-opacity=".35"/><stop offset="1" stop-color="#f0883e" stop-opacity="0"/></linearGradient><linearGradient id="areaa371f7" x1="0" y1="0" x2="0" y2="1"><stop offset="0" stop-color="#a371f7" stop-opacity=".35"/><stop offset="1" stop-color="#a371f7" stop-opacity="0"/></linearGradient><linearGradient id="area2f81f7" x1="0" y1="0" x2="0" y2="1"><stop offset="0" stop-color="#2f81f7" stop-opacity=".35"/><stop offset="1" stop-color="#2f81f7" stop-opacity="0"/></linearGradient><linearGradient id="area3fb950" x1="0" y1="0" x2="0" y2="1"><stop offset="0" stop-color="#3fb950" stop-opacity=".35"/><stop offset="1" stop-color="#3fb950" stop-opacity="0"/></linearGradient></defs>
<g font-family="-apple-system, BlinkMacSystemFont, 'Segoe UI', 'Helvetica Neue', Helvetica, Arial, sans-serif"><text x="2" y="18" font-family="ui-monospace, SFMono-Regular, 'SF Mono', Menlo, Consolas, 'Liberation Mono', monospace" font-size="13" letter-spacing="4" fill="#8b949e">BY THE NUMBERS</text><text x="1278" y="18" text-anchor="end" font-family="ui-monospace, SFMono-Regular, 'SF Mono', Menlo, Consolas, 'Liberation Mono', monospace" font-size="13" letter-spacing="4" fill="#8b949e">AS OF SEP 2026</text>
  <g>
    <rect x="1.0" y="41" width="303.0" height="248" rx="16" fill="#0d1117" stroke="#30363d"/>
    <rect x="1.0" y="41" width="303.0" height="248" rx="16" fill="url(#g0)"/>
    <circle cx="30.0" cy="72" r="4" fill="#2f81f7"/>
    <text x="42.0" y="76.5" font-family="ui-monospace, SFMono-Regular, 'SF Mono', Menlo, Consolas, 'Liberation Mono', monospace" font-size="12" letter-spacing="1.5" fill="#2f81f7">UAV</text>
    <text x="25.0" y="144" font-size="60" font-weight="800" fill="#e6edf3" letter-spacing="-1.5">~1,500<tspan font-size="30" font-weight="700" fill="#2f81f7" dx="4">h</tspan></text>
    <text x="28.0" y="178" font-size="18" fill="#8b949e">over six years building</text>
    <text x="28.0" y="202" font-size="18" fill="#8b949e">a thrust vectored UAV</text>
    <line x1="34.0" y1="238" x2="269.0" y2="238" stroke="#30363d" stroke-width="2"/><line x1="34.0" y1="238" x2="269.0" y2="238" stroke="#2f81f7" stroke-width="2" stroke-dasharray="3 5"/><circle cx="34.0" cy="238" r="6" fill="#0d1117" stroke="#2f81f7" stroke-width="2"/><text x="34.0" y="264" text-anchor="middle" font-family="ui-monospace, SFMono-Regular, 'SF Mono', Menlo, Consolas, 'Liberation Mono', monospace" font-size="12" fill="#8b949e">I</text><circle cx="152.5" cy="238" r="6" fill="#0d1117" stroke="#2f81f7" stroke-width="2"/><text x="152.5" y="264" text-anchor="middle" font-family="ui-monospace, SFMono-Regular, 'SF Mono', Menlo, Consolas, 'Liberation Mono', monospace" font-size="12" fill="#8b949e">II</text><circle cx="269.0" cy="238" r="6" fill="#2f81f7" stroke="#2f81f7" stroke-width="2"/><text x="269.0" y="264" text-anchor="middle" font-family="ui-monospace, SFMono-Regular, 'SF Mono', Menlo, Consolas, 'Liberation Mono', monospace" font-size="12" fill="#8b949e">III</text><circle cx="269.0" cy="238" r="6" fill="none" stroke="#2f81f7" stroke-width="1.5">
      <animate attributeName="r" values="6;15" dur="2.2s" repeatCount="indefinite"/>
      <animate attributeName="stroke-opacity" values=".8;0" dur="2.2s" repeatCount="indefinite"/></circle>
  </g>
  <g>
    <rect x="326.0" y="41" width="303.0" height="248" rx="16" fill="#0d1117" stroke="#30363d"/>
    <rect x="326.0" y="41" width="303.0" height="248" rx="16" fill="url(#g1)"/>
    <circle cx="355.0" cy="72" r="4" fill="#a371f7"/>
    <text x="367.0" y="76.5" font-family="ui-monospace, SFMono-Regular, 'SF Mono', Menlo, Consolas, 'Liberation Mono', monospace" font-size="12" letter-spacing="1.5" fill="#a371f7">REINFORCEMENT LEARNING</text>
    <text x="350.0" y="144" font-size="60" font-weight="800" fill="#e6edf3" letter-spacing="-1.5">450M<tspan font-size="30" font-weight="700" fill="#a371f7" dx="4">+</tspan></text>
    <text x="353.0" y="178" font-size="18" fill="#8b949e">RL steps simulated, about</text>
    <text x="353.0" y="202" font-size="18" fill="#8b949e">4,000 hours of walking</text>
    <path d="M353.0,264.0 L357.1,263.4 L361.3,259.8 L365.4,260.1 L369.6,257.0 L373.8,256.0 L377.9,255.6 L382.1,252.8 L386.2,252.9 L390.4,250.5 L394.5,250.4 L398.6,249.2 L402.8,247.2 L406.9,245.1 L411.1,246.1 L415.2,244.9 L419.4,243.0 L423.6,241.4 L427.7,241.6 L431.9,241.3 L436.0,239.2 L440.1,240.8 L444.3,238.3 L448.4,239.0 L452.6,238.8 L456.8,238.3 L460.9,237.4 L465.1,235.9 L469.2,236.7 L473.4,235.5 L477.5,235.0 L481.6,235.1 L485.8,234.5 L490.0,234.9 L494.1,234.6 L498.2,234.0 L502.4,233.0 L506.6,233.1 L510.7,233.0 L514.9,232.4 L519.0,232.3 L523.1,232.3 L527.3,231.5 L531.5,231.4 L535.6,231.7 L539.8,231.2 L543.9,231.1 L548.0,230.6 L552.2,230.6 L556.4,230.8 L560.5,230.2 L564.6,230.6 L568.8,230.3 L573.0,230.0 L577.1,230.1 L581.2,229.9 L585.4,229.9 L589.5,229.7 L593.7,229.6 L597.9,229.5 L602.0,229.5 L602.0,264 L353.0,264 Z" fill="url(#areaa371f7)"/><path d="M353.0,264.0 L357.1,263.4 L361.3,259.8 L365.4,260.1 L369.6,257.0 L373.8,256.0 L377.9,255.6 L382.1,252.8 L386.2,252.9 L390.4,250.5 L394.5,250.4 L398.6,249.2 L402.8,247.2 L406.9,245.1 L411.1,246.1 L415.2,244.9 L419.4,243.0 L423.6,241.4 L427.7,241.6 L431.9,241.3 L436.0,239.2 L440.1,240.8 L444.3,238.3 L448.4,239.0 L452.6,238.8 L456.8,238.3 L460.9,237.4 L465.1,235.9 L469.2,236.7 L473.4,235.5 L477.5,235.0 L481.6,235.1 L485.8,234.5 L490.0,234.9 L494.1,234.6 L498.2,234.0 L502.4,233.0 L506.6,233.1 L510.7,233.0 L514.9,232.4 L519.0,232.3 L523.1,232.3 L527.3,231.5 L531.5,231.4 L535.6,231.7 L539.8,231.2 L543.9,231.1 L548.0,230.6 L552.2,230.6 L556.4,230.8 L560.5,230.2 L564.6,230.6 L568.8,230.3 L573.0,230.0 L577.1,230.1 L581.2,229.9 L585.4,229.9 L589.5,229.7 L593.7,229.6 L597.9,229.5 L602.0,229.5" fill="none" stroke="#a371f7" stroke-width="2" stroke-linejoin="round"/><g><circle r="4" fill="#a371f7"/><animateMotion dur="5s" repeatCount="indefinite" path="M353.0,264.0 L357.1,263.4 L361.3,259.8 L365.4,260.1 L369.6,257.0 L373.8,256.0 L377.9,255.6 L382.1,252.8 L386.2,252.9 L390.4,250.5 L394.5,250.4 L398.6,249.2 L402.8,247.2 L406.9,245.1 L411.1,246.1 L415.2,244.9 L419.4,243.0 L423.6,241.4 L427.7,241.6 L431.9,241.3 L436.0,239.2 L440.1,240.8 L444.3,238.3 L448.4,239.0 L452.6,238.8 L456.8,238.3 L460.9,237.4 L465.1,235.9 L469.2,236.7 L473.4,235.5 L477.5,235.0 L481.6,235.1 L485.8,234.5 L490.0,234.9 L494.1,234.6 L498.2,234.0 L502.4,233.0 L506.6,233.1 L510.7,233.0 L514.9,232.4 L519.0,232.3 L523.1,232.3 L527.3,231.5 L531.5,231.4 L535.6,231.7 L539.8,231.2 L543.9,231.1 L548.0,230.6 L552.2,230.6 L556.4,230.8 L560.5,230.2 L564.6,230.6 L568.8,230.3 L573.0,230.0 L577.1,230.1 L581.2,229.9 L585.4,229.9 L589.5,229.7 L593.7,229.6 L597.9,229.5 L602.0,229.5"/></g>
  </g>
  <g>
    <rect x="651.0" y="41" width="303.0" height="248" rx="16" fill="#0d1117" stroke="#30363d"/>
    <rect x="651.0" y="41" width="303.0" height="248" rx="16" fill="url(#g2)"/>
    <circle cx="680.0" cy="72" r="4" fill="#3fb950"/>
    <text x="692.0" y="76.5" font-family="ui-monospace, SFMono-Regular, 'SF Mono', Menlo, Consolas, 'Liberation Mono', monospace" font-size="12" letter-spacing="1.5" fill="#3fb950">RL HEXAPOD</text>
    <text x="675.0" y="144" font-size="60" font-weight="800" fill="#e6edf3" letter-spacing="-1.5">98<tspan font-size="30" font-weight="700" fill="#3fb950" dx="4">%</tspan></text>
    <text x="678.0" y="178" font-size="18" fill="#8b949e">goals reached on rocky</text>
    <text x="678.0" y="202" font-size="18" fill="#8b949e">ground, with zero falls</text>
    <rect x="678.0" y="234" width="3.4" height="16" rx="1.2" fill="#3fb950"/><rect x="683.0" y="234" width="3.4" height="16" rx="1.2" fill="#3fb950"/><rect x="688.0" y="234" width="3.4" height="16" rx="1.2" fill="#3fb950"/><rect x="693.0" y="234" width="3.4" height="16" rx="1.2" fill="#3fb950"/><rect x="698.0" y="234" width="3.4" height="16" rx="1.2" fill="#3fb950"/><rect x="703.1" y="234" width="3.4" height="16" rx="1.2" fill="#3fb950"/><rect x="708.1" y="234" width="3.4" height="16" rx="1.2" fill="#3fb950"/><rect x="713.1" y="234" width="3.4" height="16" rx="1.2" fill="#3fb950"/><rect x="718.1" y="234" width="3.4" height="16" rx="1.2" fill="#3fb950"/><rect x="723.1" y="234" width="3.4" height="16" rx="1.2" fill="#3fb950"/><rect x="728.1" y="234" width="3.4" height="16" rx="1.2" fill="#3fb950"/><rect x="733.1" y="234" width="3.4" height="16" rx="1.2" fill="#3fb950"/><rect x="738.1" y="234" width="3.4" height="16" rx="1.2" fill="#3fb950"/><rect x="743.2" y="234" width="3.4" height="16" rx="1.2" fill="#3fb950"/><rect x="748.2" y="234" width="3.4" height="16" rx="1.2" fill="#3fb950"/><rect x="753.2" y="234" width="3.4" height="16" rx="1.2" fill="#3fb950"/><rect x="758.2" y="234" width="3.4" height="16" rx="1.2" fill="#3fb950"/><rect x="763.2" y="234" width="3.4" height="16" rx="1.2" fill="#3fb950"/><rect x="768.2" y="234" width="3.4" height="16" rx="1.2" fill="#3fb950"/><rect x="773.2" y="234" width="3.4" height="16" rx="1.2" fill="#3fb950"/><rect x="778.2" y="234" width="3.4" height="16" rx="1.2" fill="#3fb950"/><rect x="783.3" y="234" width="3.4" height="16" rx="1.2" fill="#3fb950"/><rect x="788.3" y="234" width="3.4" height="16" rx="1.2" fill="#3fb950"/><rect x="793.3" y="234" width="3.4" height="16" rx="1.2" fill="#3fb950"/><rect x="798.3" y="234" width="3.4" height="16" rx="1.2" fill="#3fb950"/><rect x="803.3" y="234" width="3.4" height="16" rx="1.2" fill="#3fb950"/><rect x="808.3" y="234" width="3.4" height="16" rx="1.2" fill="#3fb950"/><rect x="813.3" y="234" width="3.4" height="16" rx="1.2" fill="#3fb950"/><rect x="818.3" y="234" width="3.4" height="16" rx="1.2" fill="#3fb950"/><rect x="823.3" y="234" width="3.4" height="16" rx="1.2" fill="#3fb950"/><rect x="828.4" y="234" width="3.4" height="16" rx="1.2" fill="#3fb950"/><rect x="833.4" y="234" width="3.4" height="16" rx="1.2" fill="#3fb950"/><rect x="838.4" y="234" width="3.4" height="16" rx="1.2" fill="#3fb950"/><rect x="843.4" y="234" width="3.4" height="16" rx="1.2" fill="#3fb950"/><rect x="848.4" y="234" width="3.4" height="16" rx="1.2" fill="#3fb950"/><rect x="853.4" y="234" width="3.4" height="16" rx="1.2" fill="#3fb950"/><rect x="858.4" y="234" width="3.4" height="16" rx="1.2" fill="#3fb950"/><rect x="863.4" y="234" width="3.4" height="16" rx="1.2" fill="#3fb950"/><rect x="868.5" y="234" width="3.4" height="16" rx="1.2" fill="#3fb950"/><rect x="873.5" y="234" width="3.4" height="16" rx="1.2" fill="#3fb950"/><rect x="878.5" y="234" width="3.4" height="16" rx="1.2" fill="#3fb950"/><rect x="883.5" y="234" width="3.4" height="16" rx="1.2" fill="#3fb950"/><rect x="888.5" y="234" width="3.4" height="16" rx="1.2" fill="#3fb950"/><rect x="893.5" y="234" width="3.4" height="16" rx="1.2" fill="#3fb950"/><rect x="898.5" y="234" width="3.4" height="16" rx="1.2" fill="#3fb950"/><rect x="903.5" y="234" width="3.4" height="16" rx="1.2" fill="#3fb950"/><rect x="908.6" y="234" width="3.4" height="16" rx="1.2" fill="#3fb950"/><rect x="913.6" y="234" width="3.4" height="16" rx="1.2" fill="#3fb950"/><rect x="918.6" y="234" width="3.4" height="16" rx="1.2" fill="#3fb950"/><rect x="923.6" y="234" width="3.4" height="16" rx="1.2" fill="#21262d"/>
  </g>
  <g>
    <rect x="976.0" y="41" width="303.0" height="248" rx="16" fill="#0d1117" stroke="#30363d"/>
    <rect x="976.0" y="41" width="303.0" height="248" rx="16" fill="url(#g3)"/>
    <circle cx="1005.0" cy="72" r="4" fill="#f0883e"/>
    <text x="1017.0" y="76.5" font-family="ui-monospace, SFMono-Regular, 'SF Mono', Menlo, Consolas, 'Liberation Mono', monospace" font-size="12" letter-spacing="1.5" fill="#f0883e">COMPUTER VISION</text>
    <text x="1000.0" y="144" font-size="60" font-weight="800" fill="#e6edf3" letter-spacing="-1.5">35→6<tspan font-size="30" font-weight="700" fill="#f0883e" dx="4">ms</tspan></text>
    <text x="1003.0" y="178" font-size="18" fill="#8b949e">YOLO inference on iPhone</text>
    <text x="1003.0" y="202" font-size="18" fill="#8b949e">after an FP16 rebuild</text>
    <text x="1003.0" y="236" font-family="ui-monospace, SFMono-Regular, 'SF Mono', Menlo, Consolas, 'Liberation Mono', monospace" font-size="11" fill="#8b949e">FP32</text><rect x="1043.0" y="227" width="185.0" height="10" rx="5" fill="#21262d"/><text x="1234.0" y="236" font-family="ui-monospace, SFMono-Regular, 'SF Mono', Menlo, Consolas, 'Liberation Mono', monospace" font-size="11" fill="#8b949e">35</text><text x="1003.0" y="258" font-family="ui-monospace, SFMono-Regular, 'SF Mono', Menlo, Consolas, 'Liberation Mono', monospace" font-size="11" fill="#8b949e">FP16</text><rect x="1043.0" y="249" width="31.7" height="10" rx="5" fill="#f0883e"/><text x="1080.7" y="258" font-family="ui-monospace, SFMono-Regular, 'SF Mono', Menlo, Consolas, 'Liberation Mono', monospace" font-size="11" fill="#f0883e">6</text>
  </g>
  <g>
    <rect x="1.0" y="311" width="303.0" height="248" rx="16" fill="#0d1117" stroke="#30363d"/>
    <rect x="1.0" y="311" width="303.0" height="248" rx="16" fill="url(#g4)"/>
    <circle cx="30.0" cy="342" r="4" fill="#3fb950"/>
    <text x="42.0" y="346.5" font-family="ui-monospace, SFMono-Regular, 'SF Mono', Menlo, Consolas, 'Liberation Mono', monospace" font-size="12" letter-spacing="1.5" fill="#3fb950">GITHUB · 2026</text>
    <text x="25.0" y="414" font-size="60" font-weight="800" fill="#e6edf3" letter-spacing="-1.5">1,000<tspan font-size="30" font-weight="700" fill="#3fb950" dx="4">+</tspan></text>
    <text x="28.0" y="448" font-size="18" fill="#8b949e">contributions this year,</text>
    <text x="28.0" y="472" font-size="18" fill="#8b949e">most in private repos</text>
    <rect x="28.0" y="522.0" width="22.3" height="2.0" rx="2" fill="#3fb950" fill-opacity="0.35"/><text x="39.2" y="538" text-anchor="middle" font-family="ui-monospace, SFMono-Regular, 'SF Mono', Menlo, Consolas, 'Liberation Mono', monospace" font-size="10" fill="#8b949e">J</text><rect x="56.3" y="522.0" width="22.3" height="2.0" rx="2" fill="#3fb950" fill-opacity="0.39"/><text x="67.5" y="538" text-anchor="middle" font-family="ui-monospace, SFMono-Regular, 'SF Mono', Menlo, Consolas, 'Liberation Mono', monospace" font-size="10" fill="#8b949e">F</text><rect x="84.7" y="517.8" width="22.3" height="6.2" rx="2" fill="#3fb950" fill-opacity="0.48"/><text x="95.8" y="538" text-anchor="middle" font-family="ui-monospace, SFMono-Regular, 'SF Mono', Menlo, Consolas, 'Liberation Mono', monospace" font-size="10" fill="#8b949e">M</text><rect x="113.0" y="518.8" width="22.3" height="5.2" rx="2" fill="#3fb950" fill-opacity="0.46"/><text x="124.2" y="538" text-anchor="middle" font-family="ui-monospace, SFMono-Regular, 'SF Mono', Menlo, Consolas, 'Liberation Mono', monospace" font-size="10" fill="#8b949e">A</text><rect x="141.3" y="503.5" width="22.3" height="20.5" rx="2" fill="#3fb950" fill-opacity="0.80"/><text x="152.5" y="538" text-anchor="middle" font-family="ui-monospace, SFMono-Regular, 'SF Mono', Menlo, Consolas, 'Liberation Mono', monospace" font-size="10" fill="#8b949e">M</text><rect x="169.7" y="500.7" width="22.3" height="23.3" rx="2" fill="#3fb950" fill-opacity="0.85"/><text x="180.8" y="538" text-anchor="middle" font-family="ui-monospace, SFMono-Regular, 'SF Mono', Menlo, Consolas, 'Liberation Mono', monospace" font-size="10" fill="#8b949e">J</text><rect x="198.0" y="494.0" width="22.3" height="30.0" rx="2" fill="#3fb950" fill-opacity="1.00"/><text x="209.2" y="538" text-anchor="middle" font-family="ui-monospace, SFMono-Regular, 'SF Mono', Menlo, Consolas, 'Liberation Mono', monospace" font-size="10" fill="#8b949e">J</text><rect x="226.3" y="513.7" width="22.3" height="10.3" rx="2" fill="#3fb950" fill-opacity="0.57"/><text x="237.5" y="538" text-anchor="middle" font-family="ui-monospace, SFMono-Regular, 'SF Mono', Menlo, Consolas, 'Liberation Mono', monospace" font-size="10" fill="#8b949e">A</text><rect x="254.7" y="515.4" width="22.3" height="8.6" rx="2" fill="#3fb950" fill-opacity="0.54"/><text x="265.8" y="538" text-anchor="middle" font-family="ui-monospace, SFMono-Regular, 'SF Mono', Menlo, Consolas, 'Liberation Mono', monospace" font-size="10" fill="#8b949e">S</text>
  </g>
  <g>
    <rect x="326.0" y="311" width="303.0" height="248" rx="16" fill="#0d1117" stroke="#30363d"/>
    <rect x="326.0" y="311" width="303.0" height="248" rx="16" fill="url(#g5)"/>
    <circle cx="355.0" cy="342" r="4" fill="#f05138"/>
    <text x="367.0" y="346.5" font-family="ui-monospace, SFMono-Regular, 'SF Mono', Menlo, Consolas, 'Liberation Mono', monospace" font-size="12" letter-spacing="1.5" fill="#f05138">CODE</text>
    <text x="350.0" y="414" font-size="60" font-weight="800" fill="#e6edf3" letter-spacing="-1.5">47k<tspan font-size="30" font-weight="700" fill="#f05138" dx="4">+</tspan></text>
    <text x="353.0" y="448" font-size="18" fill="#8b949e">lines written since May</text>
    <text x="353.0" y="472" font-size="18" fill="#8b949e">across four projects</text>
    <clipPath id="locclip"><rect x="353.0" y="500" width="249.0" height="12" rx="6"/></clipPath><g clip-path="url(#locclip)"><rect x="353.0" y="500" width="179.8" height="12" fill="#f05138"/><rect x="532.8" y="500" width="35.1" height="12" fill="#2f81f7"/><rect x="567.9" y="500" width="34.1" height="12" fill="#e3b341"/></g><circle cx="357.0" cy="530" r="4" fill="#f05138"/><text x="366.0" y="534" font-family="ui-monospace, SFMono-Regular, 'SF Mono', Menlo, Consolas, 'Liberation Mono', monospace" font-size="11" fill="#8b949e">Swift</text><circle cx="423.0" cy="530" r="4" fill="#2f81f7"/><text x="432.0" y="534" font-family="ui-monospace, SFMono-Regular, 'SF Mono', Menlo, Consolas, 'Liberation Mono', monospace" font-size="11" fill="#8b949e">C++</text><circle cx="475.0" cy="530" r="4" fill="#e3b341"/><text x="484.0" y="534" font-family="ui-monospace, SFMono-Regular, 'SF Mono', Menlo, Consolas, 'Liberation Mono', monospace" font-size="11" fill="#8b949e">Python</text>
  </g>
  <g>
    <rect x="651.0" y="311" width="303.0" height="248" rx="16" fill="#0d1117" stroke="#30363d"/>
    <rect x="651.0" y="311" width="303.0" height="248" rx="16" fill="url(#g6)"/>
    <circle cx="680.0" cy="342" r="4" fill="#a371f7"/>
    <text x="692.0" y="346.5" font-family="ui-monospace, SFMono-Regular, 'SF Mono', Menlo, Consolas, 'Liberation Mono', monospace" font-size="12" letter-spacing="1.5" fill="#a371f7">PULL REQUESTS</text>
    <text x="675.0" y="414" font-size="60" font-weight="800" fill="#e6edf3" letter-spacing="-1.5">~150<tspan font-size="30" font-weight="700" fill="#a371f7" dx="4"></tspan></text>
    <text x="678.0" y="448" font-size="18" fill="#8b949e">merged into the flight</text>
    <text x="678.0" y="472" font-size="18" fill="#8b949e">stack since May</text>
    <rect x="678.0" y="496.0" width="6.3" height="6.3" rx="1.4" fill="#a371f7" fill-opacity="0.45"/><rect x="686.3" y="496.0" width="6.3" height="6.3" rx="1.4" fill="#a371f7" fill-opacity="0.45"/><rect x="694.6" y="496.0" width="6.3" height="6.3" rx="1.4" fill="#a371f7" fill-opacity="0.70"/><rect x="702.9" y="496.0" width="6.3" height="6.3" rx="1.4" fill="#a371f7" fill-opacity="1.00"/><rect x="711.2" y="496.0" width="6.3" height="6.3" rx="1.4" fill="#a371f7" fill-opacity="0.25"/><rect x="719.5" y="496.0" width="6.3" height="6.3" rx="1.4" fill="#a371f7" fill-opacity="0.25"/><rect x="727.8" y="496.0" width="6.3" height="6.3" rx="1.4" fill="#a371f7" fill-opacity="1.00"/><rect x="736.1" y="496.0" width="6.3" height="6.3" rx="1.4" fill="#a371f7" fill-opacity="0.70"/><rect x="744.4" y="496.0" width="6.3" height="6.3" rx="1.4" fill="#a371f7" fill-opacity="0.45"/><rect x="752.7" y="496.0" width="6.3" height="6.3" rx="1.4" fill="#a371f7" fill-opacity="0.45"/><rect x="761.0" y="496.0" width="6.3" height="6.3" rx="1.4" fill="#a371f7" fill-opacity="1.00"/><rect x="769.3" y="496.0" width="6.3" height="6.3" rx="1.4" fill="#a371f7" fill-opacity="1.00"/><rect x="777.6" y="496.0" width="6.3" height="6.3" rx="1.4" fill="#a371f7" fill-opacity="1.00"/><rect x="785.9" y="496.0" width="6.3" height="6.3" rx="1.4" fill="#a371f7" fill-opacity="0.45"/><rect x="794.2" y="496.0" width="6.3" height="6.3" rx="1.4" fill="#a371f7" fill-opacity="0.45"/><rect x="802.5" y="496.0" width="6.3" height="6.3" rx="1.4" fill="#a371f7" fill-opacity="0.45"/><rect x="810.8" y="496.0" width="6.3" height="6.3" rx="1.4" fill="#a371f7" fill-opacity="1.00"/><rect x="819.1" y="496.0" width="6.3" height="6.3" rx="1.4" fill="#a371f7" fill-opacity="0.25"/><rect x="827.4" y="496.0" width="6.3" height="6.3" rx="1.4" fill="#a371f7" fill-opacity="0.25"/><rect x="835.7" y="496.0" width="6.3" height="6.3" rx="1.4" fill="#a371f7" fill-opacity="0.45"/><rect x="844.0" y="496.0" width="6.3" height="6.3" rx="1.4" fill="#a371f7" fill-opacity="0.25"/><rect x="852.3" y="496.0" width="6.3" height="6.3" rx="1.4" fill="#a371f7" fill-opacity="0.70"/><rect x="860.6" y="496.0" width="6.3" height="6.3" rx="1.4" fill="#a371f7" fill-opacity="0.25"/><rect x="868.9" y="496.0" width="6.3" height="6.3" rx="1.4" fill="#a371f7" fill-opacity="0.70"/><rect x="877.2" y="496.0" width="6.3" height="6.3" rx="1.4" fill="#a371f7" fill-opacity="1.00"/><rect x="885.5" y="496.0" width="6.3" height="6.3" rx="1.4" fill="#a371f7" fill-opacity="1.00"/><rect x="893.8" y="496.0" width="6.3" height="6.3" rx="1.4" fill="#a371f7" fill-opacity="1.00"/><rect x="902.1" y="496.0" width="6.3" height="6.3" rx="1.4" fill="#a371f7" fill-opacity="1.00"/><rect x="910.4" y="496.0" width="6.3" height="6.3" rx="1.4" fill="#a371f7" fill-opacity="1.00"/><rect x="918.7" y="496.0" width="6.3" height="6.3" rx="1.4" fill="#a371f7" fill-opacity="0.45"/><rect x="678.0" y="504.3" width="6.3" height="6.3" rx="1.4" fill="#a371f7" fill-opacity="0.70"/><rect x="686.3" y="504.3" width="6.3" height="6.3" rx="1.4" fill="#a371f7" fill-opacity="0.25"/><rect x="694.6" y="504.3" width="6.3" height="6.3" rx="1.4" fill="#a371f7" fill-opacity="0.25"/><rect x="702.9" y="504.3" width="6.3" height="6.3" rx="1.4" fill="#a371f7" fill-opacity="0.45"/><rect x="711.2" y="504.3" width="6.3" height="6.3" rx="1.4" fill="#a371f7" fill-opacity="1.00"/><rect x="719.5" y="504.3" width="6.3" height="6.3" rx="1.4" fill="#a371f7" fill-opacity="0.45"/><rect x="727.8" y="504.3" width="6.3" height="6.3" rx="1.4" fill="#a371f7" fill-opacity="0.70"/><rect x="736.1" y="504.3" width="6.3" height="6.3" rx="1.4" fill="#a371f7" fill-opacity="1.00"/><rect x="744.4" y="504.3" width="6.3" height="6.3" rx="1.4" fill="#a371f7" fill-opacity="0.70"/><rect x="752.7" y="504.3" width="6.3" height="6.3" rx="1.4" fill="#a371f7" fill-opacity="1.00"/><rect x="761.0" y="504.3" width="6.3" height="6.3" rx="1.4" fill="#a371f7" fill-opacity="1.00"/><rect x="769.3" y="504.3" width="6.3" height="6.3" rx="1.4" fill="#a371f7" fill-opacity="0.70"/><rect x="777.6" y="504.3" width="6.3" height="6.3" rx="1.4" fill="#a371f7" fill-opacity="1.00"/><rect x="785.9" y="504.3" width="6.3" height="6.3" rx="1.4" fill="#a371f7" fill-opacity="0.45"/><rect x="794.2" y="504.3" width="6.3" height="6.3" rx="1.4" fill="#a371f7" fill-opacity="0.70"/><rect x="802.5" y="504.3" width="6.3" height="6.3" rx="1.4" fill="#a371f7" fill-opacity="0.25"/><rect x="810.8" y="504.3" width="6.3" height="6.3" rx="1.4" fill="#a371f7" fill-opacity="0.70"/><rect x="819.1" y="504.3" width="6.3" height="6.3" rx="1.4" fill="#a371f7" fill-opacity="0.45"/><rect x="827.4" y="504.3" width="6.3" height="6.3" rx="1.4" fill="#a371f7" fill-opacity="0.70"/><rect x="835.7" y="504.3" width="6.3" height="6.3" rx="1.4" fill="#a371f7" fill-opacity="0.25"/><rect x="844.0" y="504.3" width="6.3" height="6.3" rx="1.4" fill="#a371f7" fill-opacity="0.45"/><rect x="852.3" y="504.3" width="6.3" height="6.3" rx="1.4" fill="#a371f7" fill-opacity="0.70"/><rect x="860.6" y="504.3" width="6.3" height="6.3" rx="1.4" fill="#a371f7" fill-opacity="0.70"/><rect x="868.9" y="504.3" width="6.3" height="6.3" rx="1.4" fill="#a371f7" fill-opacity="0.25"/><rect x="877.2" y="504.3" width="6.3" height="6.3" rx="1.4" fill="#a371f7" fill-opacity="0.25"/><rect x="885.5" y="504.3" width="6.3" height="6.3" rx="1.4" fill="#a371f7" fill-opacity="1.00"/><rect x="893.8" y="504.3" width="6.3" height="6.3" rx="1.4" fill="#a371f7" fill-opacity="1.00"/><rect x="902.1" y="504.3" width="6.3" height="6.3" rx="1.4" fill="#a371f7" fill-opacity="0.25"/><rect x="910.4" y="504.3" width="6.3" height="6.3" rx="1.4" fill="#a371f7" fill-opacity="0.70"/><rect x="918.7" y="504.3" width="6.3" height="6.3" rx="1.4" fill="#a371f7" fill-opacity="0.25"/><rect x="678.0" y="512.6" width="6.3" height="6.3" rx="1.4" fill="#a371f7" fill-opacity="1.00"/><rect x="686.3" y="512.6" width="6.3" height="6.3" rx="1.4" fill="#a371f7" fill-opacity="0.45"/><rect x="694.6" y="512.6" width="6.3" height="6.3" rx="1.4" fill="#a371f7" fill-opacity="0.25"/><rect x="702.9" y="512.6" width="6.3" height="6.3" rx="1.4" fill="#a371f7" fill-opacity="0.70"/><rect x="711.2" y="512.6" width="6.3" height="6.3" rx="1.4" fill="#a371f7" fill-opacity="1.00"/><rect x="719.5" y="512.6" width="6.3" height="6.3" rx="1.4" fill="#a371f7" fill-opacity="1.00"/><rect x="727.8" y="512.6" width="6.3" height="6.3" rx="1.4" fill="#a371f7" fill-opacity="0.25"/><rect x="736.1" y="512.6" width="6.3" height="6.3" rx="1.4" fill="#a371f7" fill-opacity="0.25"/><rect x="744.4" y="512.6" width="6.3" height="6.3" rx="1.4" fill="#a371f7" fill-opacity="0.25"/><rect x="752.7" y="512.6" width="6.3" height="6.3" rx="1.4" fill="#a371f7" fill-opacity="1.00"/><rect x="761.0" y="512.6" width="6.3" height="6.3" rx="1.4" fill="#a371f7" fill-opacity="0.70"/><rect x="769.3" y="512.6" width="6.3" height="6.3" rx="1.4" fill="#a371f7" fill-opacity="0.70"/><rect x="777.6" y="512.6" width="6.3" height="6.3" rx="1.4" fill="#a371f7" fill-opacity="0.45"/><rect x="785.9" y="512.6" width="6.3" height="6.3" rx="1.4" fill="#a371f7" fill-opacity="0.25"/><rect x="794.2" y="512.6" width="6.3" height="6.3" rx="1.4" fill="#a371f7" fill-opacity="0.70"/><rect x="802.5" y="512.6" width="6.3" height="6.3" rx="1.4" fill="#a371f7" fill-opacity="0.25"/><rect x="810.8" y="512.6" width="6.3" height="6.3" rx="1.4" fill="#a371f7" fill-opacity="0.25"/><rect x="819.1" y="512.6" width="6.3" height="6.3" rx="1.4" fill="#a371f7" fill-opacity="0.25"/><rect x="827.4" y="512.6" width="6.3" height="6.3" rx="1.4" fill="#a371f7" fill-opacity="0.25"/><rect x="835.7" y="512.6" width="6.3" height="6.3" rx="1.4" fill="#a371f7" fill-opacity="0.45"/><rect x="844.0" y="512.6" width="6.3" height="6.3" rx="1.4" fill="#a371f7" fill-opacity="1.00"/><rect x="852.3" y="512.6" width="6.3" height="6.3" rx="1.4" fill="#a371f7" fill-opacity="0.70"/><rect x="860.6" y="512.6" width="6.3" height="6.3" rx="1.4" fill="#a371f7" fill-opacity="0.70"/><rect x="868.9" y="512.6" width="6.3" height="6.3" rx="1.4" fill="#a371f7" fill-opacity="0.45"/><rect x="877.2" y="512.6" width="6.3" height="6.3" rx="1.4" fill="#a371f7" fill-opacity="0.25"/><rect x="885.5" y="512.6" width="6.3" height="6.3" rx="1.4" fill="#a371f7" fill-opacity="0.70"/><rect x="893.8" y="512.6" width="6.3" height="6.3" rx="1.4" fill="#a371f7" fill-opacity="0.70"/><rect x="902.1" y="512.6" width="6.3" height="6.3" rx="1.4" fill="#a371f7" fill-opacity="0.70"/><rect x="910.4" y="512.6" width="6.3" height="6.3" rx="1.4" fill="#a371f7" fill-opacity="0.45"/><rect x="918.7" y="512.6" width="6.3" height="6.3" rx="1.4" fill="#a371f7" fill-opacity="1.00"/><rect x="678.0" y="520.9" width="6.3" height="6.3" rx="1.4" fill="#a371f7" fill-opacity="1.00"/><rect x="686.3" y="520.9" width="6.3" height="6.3" rx="1.4" fill="#a371f7" fill-opacity="1.00"/><rect x="694.6" y="520.9" width="6.3" height="6.3" rx="1.4" fill="#a371f7" fill-opacity="1.00"/><rect x="702.9" y="520.9" width="6.3" height="6.3" rx="1.4" fill="#a371f7" fill-opacity="0.25"/><rect x="711.2" y="520.9" width="6.3" height="6.3" rx="1.4" fill="#a371f7" fill-opacity="0.70"/><rect x="719.5" y="520.9" width="6.3" height="6.3" rx="1.4" fill="#a371f7" fill-opacity="1.00"/><rect x="727.8" y="520.9" width="6.3" height="6.3" rx="1.4" fill="#a371f7" fill-opacity="0.45"/><rect x="736.1" y="520.9" width="6.3" height="6.3" rx="1.4" fill="#a371f7" fill-opacity="0.70"/><rect x="744.4" y="520.9" width="6.3" height="6.3" rx="1.4" fill="#a371f7" fill-opacity="1.00"/><rect x="752.7" y="520.9" width="6.3" height="6.3" rx="1.4" fill="#a371f7" fill-opacity="0.70"/><rect x="761.0" y="520.9" width="6.3" height="6.3" rx="1.4" fill="#a371f7" fill-opacity="0.70"/><rect x="769.3" y="520.9" width="6.3" height="6.3" rx="1.4" fill="#a371f7" fill-opacity="0.70"/><rect x="777.6" y="520.9" width="6.3" height="6.3" rx="1.4" fill="#a371f7" fill-opacity="0.25"/><rect x="785.9" y="520.9" width="6.3" height="6.3" rx="1.4" fill="#a371f7" fill-opacity="1.00"/><rect x="794.2" y="520.9" width="6.3" height="6.3" rx="1.4" fill="#a371f7" fill-opacity="0.70"/><rect x="802.5" y="520.9" width="6.3" height="6.3" rx="1.4" fill="#a371f7" fill-opacity="0.25"/><rect x="810.8" y="520.9" width="6.3" height="6.3" rx="1.4" fill="#a371f7" fill-opacity="1.00"/><rect x="819.1" y="520.9" width="6.3" height="6.3" rx="1.4" fill="#a371f7" fill-opacity="0.45"/><rect x="827.4" y="520.9" width="6.3" height="6.3" rx="1.4" fill="#a371f7" fill-opacity="0.25"/><rect x="835.7" y="520.9" width="6.3" height="6.3" rx="1.4" fill="#a371f7" fill-opacity="0.70"/><rect x="844.0" y="520.9" width="6.3" height="6.3" rx="1.4" fill="#a371f7" fill-opacity="1.00"/><rect x="852.3" y="520.9" width="6.3" height="6.3" rx="1.4" fill="#a371f7" fill-opacity="0.70"/><rect x="860.6" y="520.9" width="6.3" height="6.3" rx="1.4" fill="#a371f7" fill-opacity="0.70"/><rect x="868.9" y="520.9" width="6.3" height="6.3" rx="1.4" fill="#a371f7" fill-opacity="0.70"/><rect x="877.2" y="520.9" width="6.3" height="6.3" rx="1.4" fill="#a371f7" fill-opacity="1.00"/><rect x="885.5" y="520.9" width="6.3" height="6.3" rx="1.4" fill="#a371f7" fill-opacity="0.25"/><rect x="893.8" y="520.9" width="6.3" height="6.3" rx="1.4" fill="#a371f7" fill-opacity="0.25"/><rect x="902.1" y="520.9" width="6.3" height="6.3" rx="1.4" fill="#a371f7" fill-opacity="0.25"/><rect x="910.4" y="520.9" width="6.3" height="6.3" rx="1.4" fill="#a371f7" fill-opacity="0.70"/><rect x="918.7" y="520.9" width="6.3" height="6.3" rx="1.4" fill="#a371f7" fill-opacity="0.70"/><rect x="678.0" y="529.2" width="6.3" height="6.3" rx="1.4" fill="#a371f7" fill-opacity="1.00"/><rect x="686.3" y="529.2" width="6.3" height="6.3" rx="1.4" fill="#a371f7" fill-opacity="0.70"/><rect x="694.6" y="529.2" width="6.3" height="6.3" rx="1.4" fill="#a371f7" fill-opacity="0.70"/><rect x="702.9" y="529.2" width="6.3" height="6.3" rx="1.4" fill="#a371f7" fill-opacity="0.45"/><rect x="711.2" y="529.2" width="6.3" height="6.3" rx="1.4" fill="#a371f7" fill-opacity="0.70"/><rect x="719.5" y="529.2" width="6.3" height="6.3" rx="1.4" fill="#a371f7" fill-opacity="0.45"/><rect x="727.8" y="529.2" width="6.3" height="6.3" rx="1.4" fill="#a371f7" fill-opacity="0.70"/><rect x="736.1" y="529.2" width="6.3" height="6.3" rx="1.4" fill="#a371f7" fill-opacity="0.70"/><rect x="744.4" y="529.2" width="6.3" height="6.3" rx="1.4" fill="#a371f7" fill-opacity="0.70"/><rect x="752.7" y="529.2" width="6.3" height="6.3" rx="1.4" fill="#a371f7" fill-opacity="0.70"/><rect x="761.0" y="529.2" width="6.3" height="6.3" rx="1.4" fill="#a371f7" fill-opacity="1.00"/><rect x="769.3" y="529.2" width="6.3" height="6.3" rx="1.4" fill="#a371f7" fill-opacity="0.25"/><rect x="777.6" y="529.2" width="6.3" height="6.3" rx="1.4" fill="#a371f7" fill-opacity="0.25"/><rect x="785.9" y="529.2" width="6.3" height="6.3" rx="1.4" fill="#a371f7" fill-opacity="0.45"/><rect x="794.2" y="529.2" width="6.3" height="6.3" rx="1.4" fill="#a371f7" fill-opacity="0.70"/><rect x="802.5" y="529.2" width="6.3" height="6.3" rx="1.4" fill="#a371f7" fill-opacity="0.45"/><rect x="810.8" y="529.2" width="6.3" height="6.3" rx="1.4" fill="#a371f7" fill-opacity="0.70"/><rect x="819.1" y="529.2" width="6.3" height="6.3" rx="1.4" fill="#a371f7" fill-opacity="0.45"/><rect x="827.4" y="529.2" width="6.3" height="6.3" rx="1.4" fill="#a371f7" fill-opacity="0.70"/><rect x="835.7" y="529.2" width="6.3" height="6.3" rx="1.4" fill="#a371f7" fill-opacity="0.45"/><rect x="844.0" y="529.2" width="6.3" height="6.3" rx="1.4" fill="#a371f7" fill-opacity="1.00"/><rect x="852.3" y="529.2" width="6.3" height="6.3" rx="1.4" fill="#a371f7" fill-opacity="0.25"/><rect x="860.6" y="529.2" width="6.3" height="6.3" rx="1.4" fill="#a371f7" fill-opacity="0.25"/><rect x="868.9" y="529.2" width="6.3" height="6.3" rx="1.4" fill="#a371f7" fill-opacity="0.70"/><rect x="877.2" y="529.2" width="6.3" height="6.3" rx="1.4" fill="#a371f7" fill-opacity="0.70"/><rect x="885.5" y="529.2" width="6.3" height="6.3" rx="1.4" fill="#a371f7" fill-opacity="0.45"/><rect x="893.8" y="529.2" width="6.3" height="6.3" rx="1.4" fill="#a371f7" fill-opacity="1.00"/><rect x="902.1" y="529.2" width="6.3" height="6.3" rx="1.4" fill="#a371f7" fill-opacity="0.45"/><rect x="910.4" y="529.2" width="6.3" height="6.3" rx="1.4" fill="#a371f7" fill-opacity="0.25"/><rect x="918.7" y="529.2" width="6.3" height="6.3" rx="1.4" fill="#a371f7" fill-opacity="0.70"/>
  </g>
  <g>
    <rect x="976.0" y="311" width="303.0" height="248" rx="16" fill="#0d1117" stroke="#30363d"/>
    <rect x="976.0" y="311" width="303.0" height="248" rx="16" fill="url(#g7)"/>
    <circle cx="1005.0" cy="342" r="4" fill="#db61a2"/>
    <text x="1017.0" y="346.5" font-family="ui-monospace, SFMono-Regular, 'SF Mono', Menlo, Consolas, 'Liberation Mono', monospace" font-size="12" letter-spacing="1.5" fill="#db61a2">RL HEXAPOD</text>
    <text x="1000.0" y="414" font-size="60" font-weight="800" fill="#e6edf3" letter-spacing="-1.5">0<tspan font-size="30" font-weight="700" fill="#db61a2" dx="4"></tspan></text>
    <text x="1003.0" y="448" font-size="18" fill="#8b949e">lines of hand written</text>
    <text x="1003.0" y="472" font-size="18" fill="#8b949e">gait. It taught itself</text>
    <rect x="1003.0" y="496" width="249.0" height="34" rx="8" fill="#21262d"/><text x="1015.0" y="518" font-family="ui-monospace, SFMono-Regular, 'SF Mono', Menlo, Consolas, 'Liberation Mono', monospace" font-size="13" fill="#8b949e"><tspan fill="#db61a2">gait</tspan> = policy(obs)</text>
  </g>
</g>
</svg>
